<svg version="1.2" baseProfile="tiny-ps" xmlns="http://www.w3.org/2000/svg" viewBox="0 0 384 384" width="384" height="384">
	<title>menu-svg</title>
	<style>
		tspan { white-space:pre }
		.shp0 { fill: #eb0811 } 
	</style>
	<path id="Layer" class="shp0" d="M368 207.67L16 207.67C7.17 207.67 0 200.5 0 191.67C0 182.84 7.17 175.67 16 175.67L368 175.67C376.83 175.67 384 182.84 384 191.67C384 200.5 376.83 207.67 368 207.67Z" />
	<path id="Layer" class="shp0" d="M368 85L16 85C7.17 85 0 77.83 0 69C0 60.17 7.17 53 16 53L368 53C376.83 53 384 60.17 384 69C384 77.83 376.83 85 368 85Z" />
	<path id="Layer" class="shp0" d="M368 330.33L16 330.33C7.17 330.33 0 323.16 0 314.33C0 305.5 7.17 298.33 16 298.33L368 298.33C376.83 298.33 384 305.5 384 314.33C384 323.16 376.83 330.33 368 330.33Z" />
</svg>